<mxfile host="app.diagrams.net" agent="Mozilla/5.0 (Windows NT 10.0; Win64; x64) AppleWebKit/537.36 (KHTML, like Gecko) Chrome/134.0.0.0 Safari/537.36" version="26.2.3">
  <diagram name="update-db" id="bgQNXmbIjB6IMPsISYZq">
    <mxGraphModel dx="6609" dy="1063" grid="0" gridSize="10" guides="1" tooltips="1" connect="1" arrows="1" fold="1" page="1" pageScale="1" pageWidth="4681" pageHeight="3300" background="#99CCFF" math="0" shadow="0">
      <root>
        <mxCell id="dW5WFOGfwR0lU1UXLjn_-0" />
        <mxCell id="dW5WFOGfwR0lU1UXLjn_-1" parent="dW5WFOGfwR0lU1UXLjn_-0" />
        <mxCell id="kLFAu0C1lm46THWvdxVZ-57" value="" style="rounded=0;whiteSpace=wrap;html=1;fillColor=none;shadow=0;fillStyle=zigzag-line;dashed=1;dashPattern=1 2;" parent="dW5WFOGfwR0lU1UXLjn_-1" vertex="1">
          <mxGeometry x="-3426" y="1331" width="561" height="398" as="geometry" />
        </mxCell>
        <mxCell id="kLFAu0C1lm46THWvdxVZ-56" value="" style="rounded=0;whiteSpace=wrap;html=1;fillColor=none;shadow=0;glass=0;dashed=1;dashPattern=1 2;" parent="dW5WFOGfwR0lU1UXLjn_-1" vertex="1">
          <mxGeometry x="-3762" y="1331" width="316" height="398" as="geometry" />
        </mxCell>
        <mxCell id="dW5WFOGfwR0lU1UXLjn_-63" value="" style="html=1;verticalLabelPosition=bottom;align=center;labelBackgroundColor=#ffffff;verticalAlign=top;strokeWidth=2;strokeColor=#9933FF;shadow=0;dashed=0;shape=mxgraph.ios7.icons.reload;fillColor=none;gradientColor=default;" parent="dW5WFOGfwR0lU1UXLjn_-1" vertex="1">
          <mxGeometry x="-2890" y="1334.75" width="20" height="20" as="geometry" />
        </mxCell>
        <mxCell id="dW5WFOGfwR0lU1UXLjn_-64" style="edgeStyle=orthogonalEdgeStyle;rounded=0;orthogonalLoop=1;jettySize=auto;html=1;entryX=0.5;entryY=0;entryDx=0;entryDy=0;sketch=1;curveFitting=1;jiggle=2;strokeColor=#00CC00;" parent="dW5WFOGfwR0lU1UXLjn_-1" source="dW5WFOGfwR0lU1UXLjn_-65" target="dW5WFOGfwR0lU1UXLjn_-67" edge="1">
          <mxGeometry relative="1" as="geometry" />
        </mxCell>
        <mxCell id="dW5WFOGfwR0lU1UXLjn_-65" value="61 fichiers .json&amp;nbsp;&lt;div&gt;récupérés par API&lt;/div&gt;" style="text;html=1;align=center;verticalAlign=middle;whiteSpace=wrap;rounded=0;fontSize=10;strokeColor=default;sketch=1;curveFitting=1;jiggle=2;" parent="dW5WFOGfwR0lU1UXLjn_-1" vertex="1">
          <mxGeometry x="-3742" y="1435.5" width="129" height="34" as="geometry" />
        </mxCell>
        <mxCell id="9G4bnOQ-HruWKw_7IolX-1" style="edgeStyle=orthogonalEdgeStyle;rounded=0;orthogonalLoop=1;jettySize=auto;html=1;entryX=0.5;entryY=0;entryDx=0;entryDy=0;sketch=1;curveFitting=1;jiggle=2;" parent="dW5WFOGfwR0lU1UXLjn_-1" source="dW5WFOGfwR0lU1UXLjn_-67" target="9G4bnOQ-HruWKw_7IolX-0" edge="1">
          <mxGeometry relative="1" as="geometry" />
        </mxCell>
        <mxCell id="dW5WFOGfwR0lU1UXLjn_-67" value="1 fichier .json&amp;nbsp;&lt;div&gt;avec toutes les offres&lt;/div&gt;" style="text;html=1;align=center;verticalAlign=middle;whiteSpace=wrap;rounded=0;fontSize=10;strokeColor=default;sketch=1;curveFitting=1;jiggle=2;" parent="dW5WFOGfwR0lU1UXLjn_-1" vertex="1">
          <mxGeometry x="-3734" y="1558" width="111" height="34" as="geometry" />
        </mxCell>
        <mxCell id="dW5WFOGfwR0lU1UXLjn_-68" value="T1*" style="text;html=1;align=center;verticalAlign=middle;whiteSpace=wrap;rounded=1;fontSize=16;fillColor=#d5e8d4;strokeColor=#00CC00;sketch=1;curveFitting=1;jiggle=2;shadow=1;" parent="dW5WFOGfwR0lU1UXLjn_-1" vertex="1">
          <mxGeometry x="-3660" y="1498" width="40" height="30" as="geometry" />
        </mxCell>
        <mxCell id="9G4bnOQ-HruWKw_7IolX-0" value="base de données&lt;div&gt;avec 2000 offres&lt;/div&gt;" style="text;html=1;align=center;verticalAlign=middle;whiteSpace=wrap;rounded=0;fontSize=10;strokeColor=default;sketch=1;curveFitting=1;jiggle=2;" parent="dW5WFOGfwR0lU1UXLjn_-1" vertex="1">
          <mxGeometry x="-3727" y="1667" width="97" height="34" as="geometry" />
        </mxCell>
        <mxCell id="kLFAu0C1lm46THWvdxVZ-3" value="&lt;u&gt;Transformations avec Python :&lt;/u&gt;&lt;div&gt;&lt;div&gt;&amp;nbsp; - `concatenate_all_json_into_one()`&lt;/div&gt;&lt;div&gt;&lt;span style=&quot;background-color: transparent; color: light-dark(rgb(0, 0, 0), rgb(255, 255, 255));&quot;&gt;&amp;nbsp; - `add_date_extract_attribute()`&lt;/span&gt;&lt;/div&gt;&lt;div&gt;&lt;span style=&quot;background-color: transparent; color: light-dark(rgb(0, 0, 0), rgb(255, 255, 255));&quot;&gt;&amp;nbsp; - `keep_only_offres_from_metropole()`&lt;/span&gt;&lt;/div&gt;&lt;div&gt;&lt;span style=&quot;background-color: transparent; color: light-dark(rgb(0, 0, 0), rgb(255, 255, 255));&quot;&gt;&amp;nbsp; - `add_location_attributes()`&lt;/span&gt;&lt;/div&gt;&lt;/div&gt;&lt;div&gt;&lt;span style=&quot;background-color: transparent; color: light-dark(rgb(0, 0, 0), rgb(255, 255, 255));&quot;&gt;&amp;nbsp; - `add_python_transformation_attribute()`&lt;/span&gt;&lt;/div&gt;" style="text;html=1;align=left;verticalAlign=middle;whiteSpace=wrap;rounded=1;fontSize=10;fillColor=#d5e8d4;strokeColor=#00CC00;sketch=1;curveFitting=1;jiggle=2;shadow=1;" parent="dW5WFOGfwR0lU1UXLjn_-1" vertex="1">
          <mxGeometry x="-2142" y="1505" width="202" height="79" as="geometry" />
        </mxCell>
        <mxCell id="kLFAu0C1lm46THWvdxVZ-4" value="T1*" style="text;html=1;align=center;verticalAlign=middle;whiteSpace=wrap;rounded=1;fontSize=16;fillColor=#d5e8d4;strokeColor=#00CC00;sketch=1;curveFitting=1;jiggle=2;shadow=1;" parent="dW5WFOGfwR0lU1UXLjn_-1" vertex="1">
          <mxGeometry x="-2210" y="1529.5" width="40" height="30" as="geometry" />
        </mxCell>
        <mxCell id="kLFAu0C1lm46THWvdxVZ-5" value="&lt;u&gt;Transformations avec SQL :&lt;/u&gt;&lt;div&gt;&lt;div&gt;&amp;nbsp; - ajout attribut &quot;metier_data&quot; (DA/DE/DS)&lt;/div&gt;&lt;/div&gt;&lt;div&gt;&amp;nbsp; - ajout attribut &quot;salaire_min&quot; et &quot;salaire_max&quot;&lt;/div&gt;&lt;div&gt;&amp;nbsp; - ajout attribut &quot;sql_transformation&quot;&lt;/div&gt;" style="text;html=1;align=left;verticalAlign=middle;whiteSpace=wrap;rounded=1;fontSize=10;fillColor=#ffe6cc;strokeColor=#d79b00;glass=0;sketch=1;curveFitting=1;jiggle=2;shadow=1;" parent="dW5WFOGfwR0lU1UXLjn_-1" vertex="1">
          <mxGeometry x="-2144" y="1634" width="224" height="60" as="geometry" />
        </mxCell>
        <mxCell id="kLFAu0C1lm46THWvdxVZ-7" value="T2*" style="text;html=1;align=center;verticalAlign=middle;whiteSpace=wrap;rounded=1;fontSize=16;fillColor=#ffe6cc;strokeColor=#d79b00;glass=0;sketch=1;curveFitting=1;jiggle=2;shadow=1;" parent="dW5WFOGfwR0lU1UXLjn_-1" vertex="1">
          <mxGeometry x="-3615" y="1669" width="40" height="30" as="geometry" />
        </mxCell>
        <mxCell id="kLFAu0C1lm46THWvdxVZ-8" value="T2*" style="text;html=1;align=center;verticalAlign=middle;whiteSpace=wrap;rounded=1;fontSize=16;fillColor=#ffe6cc;strokeColor=#d79b00;glass=0;sketch=1;curveFitting=1;jiggle=2;shadow=1;" parent="dW5WFOGfwR0lU1UXLjn_-1" vertex="1">
          <mxGeometry x="-2212" y="1647" width="40" height="30" as="geometry" />
        </mxCell>
        <mxCell id="kLFAu0C1lm46THWvdxVZ-9" style="edgeStyle=orthogonalEdgeStyle;rounded=0;orthogonalLoop=1;jettySize=auto;html=1;entryX=0.5;entryY=0;entryDx=0;entryDy=0;sketch=1;curveFitting=1;jiggle=2;strokeColor=#00CC00;" parent="dW5WFOGfwR0lU1UXLjn_-1" source="kLFAu0C1lm46THWvdxVZ-10" target="kLFAu0C1lm46THWvdxVZ-13" edge="1">
          <mxGeometry relative="1" as="geometry" />
        </mxCell>
        <mxCell id="kLFAu0C1lm46THWvdxVZ-10" value="61 &lt;font style=&quot;color: rgb(0, 0, 255);&quot;&gt;&lt;b&gt;nouveaux&lt;/b&gt;&lt;/font&gt; fichiers .json&amp;nbsp;&lt;div&gt;récupérés par API&lt;/div&gt;" style="text;html=1;align=center;verticalAlign=middle;whiteSpace=wrap;rounded=0;fontSize=10;strokeColor=default;sketch=1;curveFitting=1;jiggle=2;" parent="dW5WFOGfwR0lU1UXLjn_-1" vertex="1">
          <mxGeometry x="-3404" y="1435.5" width="139" height="34" as="geometry" />
        </mxCell>
        <mxCell id="kLFAu0C1lm46THWvdxVZ-12" style="edgeStyle=orthogonalEdgeStyle;rounded=0;orthogonalLoop=1;jettySize=auto;html=1;entryX=0.5;entryY=0;entryDx=0;entryDy=0;curved=0;sketch=1;curveFitting=1;jiggle=2;" parent="dW5WFOGfwR0lU1UXLjn_-1" source="kLFAu0C1lm46THWvdxVZ-13" target="kLFAu0C1lm46THWvdxVZ-15" edge="1">
          <mxGeometry relative="1" as="geometry" />
        </mxCell>
        <mxCell id="kLFAu0C1lm46THWvdxVZ-13" value="1 fichier .json&amp;nbsp;&lt;div&gt;avec toutes les offres&lt;/div&gt;" style="text;html=1;align=center;verticalAlign=middle;whiteSpace=wrap;rounded=0;fontSize=10;strokeColor=default;sketch=1;curveFitting=1;jiggle=2;" parent="dW5WFOGfwR0lU1UXLjn_-1" vertex="1">
          <mxGeometry x="-3391" y="1558" width="111" height="34" as="geometry" />
        </mxCell>
        <mxCell id="kLFAu0C1lm46THWvdxVZ-14" value="T1*" style="text;html=1;align=center;verticalAlign=middle;whiteSpace=wrap;rounded=1;fontSize=16;fillColor=#d5e8d4;strokeColor=#00CC00;sketch=1;curveFitting=1;jiggle=2;shadow=1;" parent="dW5WFOGfwR0lU1UXLjn_-1" vertex="1">
          <mxGeometry x="-3317" y="1498" width="40" height="30" as="geometry" />
        </mxCell>
        <mxCell id="kLFAu0C1lm46THWvdxVZ-15" value="base de données avec 3000 offres" style="text;html=1;align=center;verticalAlign=middle;whiteSpace=wrap;rounded=0;fontSize=10;strokeColor=default;sketch=1;curveFitting=1;jiggle=2;" parent="dW5WFOGfwR0lU1UXLjn_-1" vertex="1">
          <mxGeometry x="-3381" y="1668" width="91" height="34" as="geometry" />
        </mxCell>
        <mxCell id="kLFAu0C1lm46THWvdxVZ-16" value="T2*" style="text;html=1;align=center;verticalAlign=middle;whiteSpace=wrap;rounded=1;fontSize=16;fillColor=#ffe6cc;strokeColor=#d79b00;glass=0;sketch=1;curveFitting=1;jiggle=2;shadow=1;" parent="dW5WFOGfwR0lU1UXLjn_-1" vertex="1">
          <mxGeometry x="-3275" y="1670" width="40" height="30" as="geometry" />
        </mxCell>
        <mxCell id="kLFAu0C1lm46THWvdxVZ-17" value="json_1" style="shape=table;startSize=20;container=0;collapsible=0;childLayout=tableLayout;fixedRows=0;rowLines=1;fontStyle=1;align=center;resizeLast=0;html=1;sketch=1;curveFitting=1;jiggle=2;rounded=0;shadow=1;columnLines=1;swimlaneHead=1;swimlaneBody=1;horizontal=1;top=0;bottom=0;left=0;right=0;connectable=1;allowArrows=0;dropTarget=0;expand=0;editable=1;movable=1;resizable=1;rotatable=1;deletable=1;locked=0;fillColor=#e1d5e7;strokeColor=#9673a6;fontSize=12;" parent="dW5WFOGfwR0lU1UXLjn_-1" vertex="1">
          <mxGeometry x="-3600" y="1543" width="123" height="67.04" as="geometry" />
        </mxCell>
        <mxCell id="kLFAu0C1lm46THWvdxVZ-21" value="" style="shape=tableRow;horizontal=0;startSize=0;swimlaneHead=0;swimlaneBody=0;fillColor=none;collapsible=0;dropTarget=0;points=[[0,0.5],[1,0.5]];portConstraint=eastwest;top=0;left=0;right=0;bottom=0;" parent="kLFAu0C1lm46THWvdxVZ-17" vertex="1">
          <mxGeometry y="20" width="123" height="23" as="geometry" />
        </mxCell>
        <mxCell id="kLFAu0C1lm46THWvdxVZ-22" value="offres 1-500" style="shape=partialRectangle;connectable=0;fillColor=none;top=0;left=0;bottom=0;right=0;editable=1;overflow=hidden;whiteSpace=wrap;html=1;recursiveResize=1;expand=1;part=0;fixedWidth=0;comic=0;fontSize=8;" parent="kLFAu0C1lm46THWvdxVZ-21" vertex="1">
          <mxGeometry width="75" height="23" as="geometry">
            <mxRectangle width="75" height="23" as="alternateBounds" />
          </mxGeometry>
        </mxCell>
        <mxCell id="kLFAu0C1lm46THWvdxVZ-23" value="nouveau" style="shape=partialRectangle;connectable=0;fillColor=none;top=0;left=0;bottom=0;right=0;align=center;spacingLeft=6;overflow=hidden;whiteSpace=wrap;html=1;fontSize=8;" parent="kLFAu0C1lm46THWvdxVZ-21" vertex="1">
          <mxGeometry x="75" width="48" height="23" as="geometry">
            <mxRectangle width="48" height="23" as="alternateBounds" />
          </mxGeometry>
        </mxCell>
        <mxCell id="kLFAu0C1lm46THWvdxVZ-24" value="" style="shape=tableRow;horizontal=0;startSize=0;swimlaneHead=0;swimlaneBody=0;fillColor=none;collapsible=0;dropTarget=0;points=[[0,0.5],[1,0.5]];portConstraint=eastwest;top=0;left=0;right=0;bottom=0;" parent="kLFAu0C1lm46THWvdxVZ-17" vertex="1">
          <mxGeometry y="43" width="123" height="24" as="geometry" />
        </mxCell>
        <mxCell id="kLFAu0C1lm46THWvdxVZ-25" value="&lt;span style=&quot;font-size: 8px;&quot;&gt;offres 501-2000&lt;/span&gt;" style="shape=partialRectangle;connectable=0;fillColor=none;top=0;left=0;bottom=0;right=0;editable=1;overflow=hidden;whiteSpace=wrap;html=1;" parent="kLFAu0C1lm46THWvdxVZ-24" vertex="1">
          <mxGeometry width="75" height="24" as="geometry">
            <mxRectangle width="75" height="24" as="alternateBounds" />
          </mxGeometry>
        </mxCell>
        <mxCell id="kLFAu0C1lm46THWvdxVZ-26" value="nouveau" style="shape=partialRectangle;connectable=0;fillColor=none;top=0;left=0;bottom=0;right=0;align=center;spacingLeft=6;overflow=hidden;whiteSpace=wrap;html=1;fontSize=8;" parent="kLFAu0C1lm46THWvdxVZ-24" vertex="1">
          <mxGeometry x="75" width="48" height="24" as="geometry">
            <mxRectangle width="48" height="24" as="alternateBounds" />
          </mxGeometry>
        </mxCell>
        <mxCell id="kLFAu0C1lm46THWvdxVZ-41" value="&lt;font style=&quot;font-size: 14px;&quot;&gt;&lt;b&gt;&lt;u&gt;Deuxième extraction :&lt;br&gt;&lt;/u&gt;&lt;/b&gt;&lt;/font&gt;" style="text;html=1;align=left;verticalAlign=top;whiteSpace=wrap;rounded=0;fontSize=10;" parent="dW5WFOGfwR0lU1UXLjn_-1" vertex="1">
          <mxGeometry x="-3410" y="1333" width="155" height="39" as="geometry" />
        </mxCell>
        <mxCell id="kLFAu0C1lm46THWvdxVZ-42" value="&lt;div&gt;&lt;font style=&quot;font-size: 14px;&quot;&gt;&lt;b&gt;&lt;u&gt;Première extraction :&lt;/u&gt;&lt;/b&gt;&lt;/font&gt;&lt;/div&gt;" style="text;html=1;align=left;verticalAlign=top;whiteSpace=wrap;rounded=0;fontSize=10;" parent="dW5WFOGfwR0lU1UXLjn_-1" vertex="1">
          <mxGeometry x="-3748" y="1333" width="152" height="32" as="geometry" />
        </mxCell>
        <mxCell id="kLFAu0C1lm46THWvdxVZ-43" value="json_2" style="shape=table;startSize=20;container=0;collapsible=0;childLayout=tableLayout;fixedRows=0;rowLines=1;fontStyle=1;align=center;resizeLast=0;html=1;sketch=1;curveFitting=1;jiggle=2;rounded=0;shadow=1;columnLines=1;swimlaneHead=1;swimlaneBody=1;horizontal=1;top=0;bottom=0;left=0;right=0;connectable=1;allowArrows=0;dropTarget=0;expand=0;editable=1;movable=1;resizable=1;rotatable=1;deletable=1;locked=0;fillColor=#e1d5e7;strokeColor=#9673a6;fontSize=12;" parent="dW5WFOGfwR0lU1UXLjn_-1" vertex="1">
          <mxGeometry x="-3259" y="1538" width="132" height="91.04" as="geometry" />
        </mxCell>
        <mxCell id="kLFAu0C1lm46THWvdxVZ-44" value="" style="shape=tableRow;horizontal=0;startSize=0;swimlaneHead=0;swimlaneBody=0;fillColor=none;collapsible=0;dropTarget=0;points=[[0,0.5],[1,0.5]];portConstraint=eastwest;top=0;left=0;right=0;bottom=0;labelBackgroundColor=none;labelBorderColor=none;" parent="kLFAu0C1lm46THWvdxVZ-43" vertex="1">
          <mxGeometry y="20" width="132" height="23" as="geometry" />
        </mxCell>
        <mxCell id="kLFAu0C1lm46THWvdxVZ-45" value="&lt;strike&gt;offres 1-500&lt;/strike&gt;" style="shape=partialRectangle;connectable=0;fillColor=none;top=0;left=0;bottom=0;right=0;editable=1;overflow=hidden;whiteSpace=wrap;html=1;recursiveResize=1;expand=1;part=0;fixedWidth=0;comic=0;fontSize=8;textShadow=0;labelBackgroundColor=none;" parent="kLFAu0C1lm46THWvdxVZ-44" vertex="1">
          <mxGeometry width="80" height="23" as="geometry">
            <mxRectangle width="80" height="23" as="alternateBounds" />
          </mxGeometry>
        </mxCell>
        <mxCell id="kLFAu0C1lm46THWvdxVZ-46" value="&lt;strike&gt;ne sont plus disponibles&lt;/strike&gt;" style="shape=partialRectangle;connectable=0;fillColor=none;top=0;left=0;bottom=0;right=0;align=center;spacingLeft=6;overflow=hidden;whiteSpace=wrap;html=1;fontSize=8;" parent="kLFAu0C1lm46THWvdxVZ-44" vertex="1">
          <mxGeometry x="80" width="52" height="23" as="geometry">
            <mxRectangle width="52" height="23" as="alternateBounds" />
          </mxGeometry>
        </mxCell>
        <mxCell id="kLFAu0C1lm46THWvdxVZ-47" value="" style="shape=tableRow;horizontal=0;startSize=0;swimlaneHead=0;swimlaneBody=0;fillColor=none;collapsible=0;dropTarget=0;points=[[0,0.5],[1,0.5]];portConstraint=eastwest;top=0;left=0;right=0;bottom=0;" parent="kLFAu0C1lm46THWvdxVZ-43" vertex="1">
          <mxGeometry y="43" width="132" height="24" as="geometry" />
        </mxCell>
        <mxCell id="kLFAu0C1lm46THWvdxVZ-48" value="&lt;span style=&quot;font-size: 8px;&quot;&gt;offres 501-2000&lt;/span&gt;" style="shape=partialRectangle;connectable=0;fillColor=none;top=0;left=0;bottom=0;right=0;editable=1;overflow=hidden;whiteSpace=wrap;html=1;" parent="kLFAu0C1lm46THWvdxVZ-47" vertex="1">
          <mxGeometry width="80" height="24" as="geometry">
            <mxRectangle width="80" height="24" as="alternateBounds" />
          </mxGeometry>
        </mxCell>
        <mxCell id="kLFAu0C1lm46THWvdxVZ-49" value="toujours disponibles" style="shape=partialRectangle;connectable=0;fillColor=none;top=0;left=0;bottom=0;right=0;align=center;spacingLeft=6;overflow=hidden;whiteSpace=wrap;html=1;fontSize=8;" parent="kLFAu0C1lm46THWvdxVZ-47" vertex="1">
          <mxGeometry x="80" width="52" height="24" as="geometry">
            <mxRectangle width="52" height="24" as="alternateBounds" />
          </mxGeometry>
        </mxCell>
        <mxCell id="kLFAu0C1lm46THWvdxVZ-53" value="" style="shape=tableRow;horizontal=0;startSize=0;swimlaneHead=0;swimlaneBody=0;fillColor=none;collapsible=0;dropTarget=0;points=[[0,0.5],[1,0.5]];portConstraint=eastwest;top=0;left=0;right=0;bottom=0;" parent="kLFAu0C1lm46THWvdxVZ-43" vertex="1">
          <mxGeometry y="67" width="132" height="24" as="geometry" />
        </mxCell>
        <mxCell id="kLFAu0C1lm46THWvdxVZ-54" value="&lt;span style=&quot;font-size: 8px;&quot;&gt;offres 2001-3000&lt;/span&gt;" style="shape=partialRectangle;connectable=0;fillColor=none;top=0;left=0;bottom=0;right=0;editable=1;overflow=hidden;whiteSpace=wrap;html=1;" parent="kLFAu0C1lm46THWvdxVZ-53" vertex="1">
          <mxGeometry width="80" height="24" as="geometry">
            <mxRectangle width="80" height="24" as="alternateBounds" />
          </mxGeometry>
        </mxCell>
        <mxCell id="kLFAu0C1lm46THWvdxVZ-55" value="nouveau" style="shape=partialRectangle;connectable=0;fillColor=none;top=0;left=0;bottom=0;right=0;align=center;spacingLeft=6;overflow=hidden;whiteSpace=wrap;html=1;fontSize=8;" parent="kLFAu0C1lm46THWvdxVZ-53" vertex="1">
          <mxGeometry x="80" width="52" height="24" as="geometry">
            <mxRectangle width="52" height="24" as="alternateBounds" />
          </mxGeometry>
        </mxCell>
        <mxCell id="kLFAu0C1lm46THWvdxVZ-58" value="json_2" style="shape=table;startSize=20;container=0;collapsible=0;childLayout=tableLayout;fixedRows=0;rowLines=1;fontStyle=1;align=center;resizeLast=0;html=1;sketch=1;curveFitting=1;jiggle=2;rounded=0;shadow=1;columnLines=1;swimlaneHead=1;swimlaneBody=1;horizontal=1;top=0;bottom=0;left=0;right=0;connectable=1;allowArrows=0;dropTarget=0;expand=0;editable=1;movable=1;resizable=1;rotatable=1;deletable=1;locked=0;fillColor=#e1d5e7;strokeColor=#FF33FF;fontSize=12;" parent="dW5WFOGfwR0lU1UXLjn_-1" vertex="1">
          <mxGeometry x="-3023" y="1538" width="145" height="91.04" as="geometry" />
        </mxCell>
        <mxCell id="kLFAu0C1lm46THWvdxVZ-59" value="" style="shape=tableRow;horizontal=0;startSize=0;swimlaneHead=0;swimlaneBody=0;fillColor=none;collapsible=0;dropTarget=0;points=[[0,0.5],[1,0.5]];portConstraint=eastwest;top=0;left=0;right=0;bottom=0;labelBackgroundColor=none;labelBorderColor=none;" parent="kLFAu0C1lm46THWvdxVZ-58" vertex="1">
          <mxGeometry y="20" width="145" height="23" as="geometry" />
        </mxCell>
        <mxCell id="kLFAu0C1lm46THWvdxVZ-60" value="offres 1-500" style="shape=partialRectangle;connectable=0;fillColor=none;top=0;left=0;bottom=0;right=0;editable=1;overflow=hidden;whiteSpace=wrap;html=1;recursiveResize=1;expand=1;part=0;fixedWidth=0;comic=0;fontSize=8;textShadow=0;labelBackgroundColor=none;" parent="kLFAu0C1lm46THWvdxVZ-59" vertex="1">
          <mxGeometry width="80" height="23" as="geometry">
            <mxRectangle width="80" height="23" as="alternateBounds" />
          </mxGeometry>
        </mxCell>
        <mxCell id="kLFAu0C1lm46THWvdxVZ-61" value="de &quot;json_1&quot;" style="shape=partialRectangle;connectable=0;fillColor=none;top=0;left=0;bottom=0;right=0;align=center;spacingLeft=6;overflow=hidden;whiteSpace=wrap;html=1;fontSize=8;" parent="kLFAu0C1lm46THWvdxVZ-59" vertex="1">
          <mxGeometry x="80" width="65" height="23" as="geometry">
            <mxRectangle width="65" height="23" as="alternateBounds" />
          </mxGeometry>
        </mxCell>
        <mxCell id="kLFAu0C1lm46THWvdxVZ-62" value="" style="shape=tableRow;horizontal=0;startSize=0;swimlaneHead=0;swimlaneBody=0;fillColor=none;collapsible=0;dropTarget=0;points=[[0,0.5],[1,0.5]];portConstraint=eastwest;top=0;left=0;right=0;bottom=0;" parent="kLFAu0C1lm46THWvdxVZ-58" vertex="1">
          <mxGeometry y="43" width="145" height="24" as="geometry" />
        </mxCell>
        <mxCell id="kLFAu0C1lm46THWvdxVZ-63" value="&lt;span style=&quot;font-size: 8px;&quot;&gt;offres 501-2000&lt;/span&gt;" style="shape=partialRectangle;connectable=0;fillColor=none;top=0;left=0;bottom=0;right=0;editable=1;overflow=hidden;whiteSpace=wrap;html=1;" parent="kLFAu0C1lm46THWvdxVZ-62" vertex="1">
          <mxGeometry width="80" height="24" as="geometry">
            <mxRectangle width="80" height="24" as="alternateBounds" />
          </mxGeometry>
        </mxCell>
        <mxCell id="kLFAu0C1lm46THWvdxVZ-64" value="de &quot;json_2&quot;&amp;nbsp;&lt;span style=&quot;background-color: transparent; color: light-dark(rgb(0, 0, 0), rgb(255, 255, 255));&quot;&gt;car attributs à jour&lt;/span&gt;" style="shape=partialRectangle;connectable=0;fillColor=none;top=0;left=0;bottom=0;right=0;align=center;spacingLeft=6;overflow=hidden;whiteSpace=wrap;html=1;fontSize=8;" parent="kLFAu0C1lm46THWvdxVZ-62" vertex="1">
          <mxGeometry x="80" width="65" height="24" as="geometry">
            <mxRectangle width="65" height="24" as="alternateBounds" />
          </mxGeometry>
        </mxCell>
        <mxCell id="kLFAu0C1lm46THWvdxVZ-65" value="" style="shape=tableRow;horizontal=0;startSize=0;swimlaneHead=0;swimlaneBody=0;fillColor=none;collapsible=0;dropTarget=0;points=[[0,0.5],[1,0.5]];portConstraint=eastwest;top=0;left=0;right=0;bottom=0;" parent="kLFAu0C1lm46THWvdxVZ-58" vertex="1">
          <mxGeometry y="67" width="145" height="24" as="geometry" />
        </mxCell>
        <mxCell id="kLFAu0C1lm46THWvdxVZ-66" value="&lt;span style=&quot;font-size: 8px;&quot;&gt;offres 2001-3000&lt;/span&gt;" style="shape=partialRectangle;connectable=0;fillColor=none;top=0;left=0;bottom=0;right=0;editable=1;overflow=hidden;whiteSpace=wrap;html=1;" parent="kLFAu0C1lm46THWvdxVZ-65" vertex="1">
          <mxGeometry width="80" height="24" as="geometry">
            <mxRectangle width="80" height="24" as="alternateBounds" />
          </mxGeometry>
        </mxCell>
        <mxCell id="kLFAu0C1lm46THWvdxVZ-67" value="de &quot;json_2&quot;" style="shape=partialRectangle;connectable=0;fillColor=none;top=0;left=0;bottom=0;right=0;align=center;spacingLeft=6;overflow=hidden;whiteSpace=wrap;html=1;fontSize=8;" parent="kLFAu0C1lm46THWvdxVZ-65" vertex="1">
          <mxGeometry x="80" width="65" height="24" as="geometry">
            <mxRectangle width="65" height="24" as="alternateBounds" />
          </mxGeometry>
        </mxCell>
        <mxCell id="kLFAu0C1lm46THWvdxVZ-75" value="" style="rounded=1;whiteSpace=wrap;html=1;fillColor=none;shadow=1;dashed=1;strokeColor=#FF33FF;strokeWidth=1;" parent="dW5WFOGfwR0lU1UXLjn_-1" vertex="1">
          <mxGeometry x="-3614" y="1532" width="152" height="89" as="geometry" />
        </mxCell>
        <mxCell id="kLFAu0C1lm46THWvdxVZ-76" value="" style="rounded=1;whiteSpace=wrap;html=1;fillColor=none;shadow=1;dashed=1;strokeColor=#FF33FF;strokeWidth=1;" parent="dW5WFOGfwR0lU1UXLjn_-1" vertex="1">
          <mxGeometry x="-3269" y="1528" width="152" height="113" as="geometry" />
        </mxCell>
        <mxCell id="kLFAu0C1lm46THWvdxVZ-81" style="edgeStyle=orthogonalEdgeStyle;rounded=1;orthogonalLoop=1;jettySize=auto;html=1;exitX=0.5;exitY=1;exitDx=0;exitDy=0;curved=0;strokeColor=#FF33FF;" parent="dW5WFOGfwR0lU1UXLjn_-1" source="kLFAu0C1lm46THWvdxVZ-76" edge="1">
          <mxGeometry relative="1" as="geometry">
            <mxPoint x="-2956" y="1631" as="targetPoint" />
            <Array as="points">
              <mxPoint x="-3193" y="1711" />
              <mxPoint x="-2956" y="1711" />
              <mxPoint x="-2956" y="1631" />
            </Array>
          </mxGeometry>
        </mxCell>
        <mxCell id="kLFAu0C1lm46THWvdxVZ-83" style="edgeStyle=orthogonalEdgeStyle;rounded=1;orthogonalLoop=1;jettySize=auto;html=1;entryX=0.859;entryY=0.754;entryDx=0;entryDy=0;entryPerimeter=0;curved=0;exitX=0.5;exitY=1;exitDx=0;exitDy=0;strokeColor=#FF33FF;" parent="dW5WFOGfwR0lU1UXLjn_-1" source="kLFAu0C1lm46THWvdxVZ-75" target="kLFAu0C1lm46THWvdxVZ-57" edge="1">
          <mxGeometry relative="1" as="geometry">
            <mxPoint x="-3580.9799999999996" y="1621.001" as="sourcePoint" />
            <mxPoint x="-2971.125" y="1632.3059999999998" as="targetPoint" />
            <Array as="points">
              <mxPoint x="-3538" y="1718" />
              <mxPoint x="-2944" y="1718" />
              <mxPoint x="-2944" y="1631" />
            </Array>
          </mxGeometry>
        </mxCell>
        <mxCell id="kLFAu0C1lm46THWvdxVZ-84" value="" style="shape=flexArrow;endArrow=classic;html=1;rounded=0;endWidth=10.465116279069768;endSize=5.212037037037037;width=6.296296296296296;fillColor=#FF33FF;" parent="dW5WFOGfwR0lU1UXLjn_-1" edge="1">
          <mxGeometry width="50" height="50" relative="1" as="geometry">
            <mxPoint x="-3105.25" y="1589" as="sourcePoint" />
            <mxPoint x="-3035.25" y="1589" as="targetPoint" />
            <Array as="points">
              <mxPoint x="-3094.25" y="1589" />
              <mxPoint x="-3073.25" y="1589" />
            </Array>
          </mxGeometry>
        </mxCell>
        <mxCell id="kLFAu0C1lm46THWvdxVZ-85" value="&lt;font style=&quot;color: rgb(204, 0, 204);&quot;&gt;Il faut faire un &quot;RIGHT JOIN&quot; entre &quot;json_1&quot; et &quot;json_2&quot;.&lt;/font&gt;" style="text;html=1;align=center;verticalAlign=middle;whiteSpace=wrap;rounded=0;fontSize=10;strokeColor=none;sketch=1;curveFitting=1;jiggle=2;fillColor=none;" parent="dW5WFOGfwR0lU1UXLjn_-1" vertex="1">
          <mxGeometry x="-3017" y="1500" width="139" height="34" as="geometry" />
        </mxCell>
        <mxCell id="kLFAu0C1lm46THWvdxVZ-88" value="&lt;font style=&quot;color: rgb(204, 0, 204);&quot;&gt;on veut&lt;/font&gt;" style="text;html=1;align=center;verticalAlign=middle;whiteSpace=wrap;rounded=0;fontSize=10;strokeColor=none;sketch=1;curveFitting=1;jiggle=2;fillColor=none;" parent="dW5WFOGfwR0lU1UXLjn_-1" vertex="1">
          <mxGeometry x="-3100" y="1558" width="51" height="34" as="geometry" />
        </mxCell>
        <mxCell id="kLFAu0C1lm46THWvdxVZ-89" style="edgeStyle=orthogonalEdgeStyle;rounded=0;orthogonalLoop=1;jettySize=auto;html=1;entryX=0.5;entryY=0;entryDx=0;entryDy=0;sketch=1;curveFitting=1;jiggle=2;strokeColor=#00CC00;" parent="dW5WFOGfwR0lU1UXLjn_-1" source="kLFAu0C1lm46THWvdxVZ-95" target="kLFAu0C1lm46THWvdxVZ-96" edge="1">
          <mxGeometry relative="1" as="geometry" />
        </mxCell>
        <mxCell id="kLFAu0C1lm46THWvdxVZ-93" value="" style="rounded=0;whiteSpace=wrap;html=1;fillColor=none;shadow=0;fillStyle=zigzag-line;dashed=1;dashPattern=1 2;" parent="dW5WFOGfwR0lU1UXLjn_-1" vertex="1">
          <mxGeometry x="-2840" y="1331" width="561" height="398" as="geometry" />
        </mxCell>
        <mxCell id="kLFAu0C1lm46THWvdxVZ-90" style="edgeStyle=orthogonalEdgeStyle;rounded=0;orthogonalLoop=1;jettySize=auto;html=1;entryX=0.5;entryY=0;entryDx=0;entryDy=0;sketch=1;curveFitting=1;jiggle=2;" parent="dW5WFOGfwR0lU1UXLjn_-1" source="kLFAu0C1lm46THWvdxVZ-96" target="kLFAu0C1lm46THWvdxVZ-98" edge="1">
          <mxGeometry relative="1" as="geometry" />
        </mxCell>
        <mxCell id="kLFAu0C1lm46THWvdxVZ-91" style="edgeStyle=orthogonalEdgeStyle;rounded=1;orthogonalLoop=1;jettySize=auto;html=1;exitX=0.5;exitY=1;exitDx=0;exitDy=0;curved=0;strokeColor=#FF33FF;entryX=0.521;entryY=1.08;entryDx=0;entryDy=0;entryPerimeter=0;" parent="dW5WFOGfwR0lU1UXLjn_-1" source="kLFAu0C1lm46THWvdxVZ-121" target="kLFAu0C1lm46THWvdxVZ-118" edge="1">
          <mxGeometry relative="1" as="geometry">
            <mxPoint x="-2382" y="1632" as="targetPoint" />
            <Array as="points">
              <mxPoint x="-2608" y="1711" />
              <mxPoint x="-2362" y="1711" />
              <mxPoint x="-2362" y="1631" />
            </Array>
          </mxGeometry>
        </mxCell>
        <mxCell id="kLFAu0C1lm46THWvdxVZ-92" value="" style="shape=flexArrow;endArrow=classic;html=1;rounded=0;endWidth=10.465116279069768;endSize=5.212037037037037;width=6.296296296296296;fillColor=#FF33FF;" parent="dW5WFOGfwR0lU1UXLjn_-1" edge="1">
          <mxGeometry width="50" height="50" relative="1" as="geometry">
            <mxPoint x="-2520.25" y="1589" as="sourcePoint" />
            <mxPoint x="-2450.25" y="1589" as="targetPoint" />
            <Array as="points">
              <mxPoint x="-2509.25" y="1589" />
              <mxPoint x="-2488.25" y="1589" />
            </Array>
          </mxGeometry>
        </mxCell>
        <mxCell id="kLFAu0C1lm46THWvdxVZ-94" value="" style="html=1;verticalLabelPosition=bottom;align=center;labelBackgroundColor=#ffffff;verticalAlign=top;strokeWidth=2;strokeColor=#9933FF;shadow=0;dashed=0;shape=mxgraph.ios7.icons.reload;fillColor=none;gradientColor=default;" parent="dW5WFOGfwR0lU1UXLjn_-1" vertex="1">
          <mxGeometry x="-2304" y="1334.75" width="20" height="20" as="geometry" />
        </mxCell>
        <mxCell id="kLFAu0C1lm46THWvdxVZ-95" value="61 &lt;font style=&quot;color: rgb(0, 0, 255);&quot;&gt;&lt;b&gt;nouveaux&lt;/b&gt;&lt;/font&gt; fichiers .json&amp;nbsp;&lt;div&gt;récupérés par API&lt;/div&gt;" style="text;html=1;align=center;verticalAlign=middle;whiteSpace=wrap;rounded=0;fontSize=10;strokeColor=default;sketch=1;curveFitting=1;jiggle=2;" parent="dW5WFOGfwR0lU1UXLjn_-1" vertex="1">
          <mxGeometry x="-2819" y="1435.5" width="139" height="34" as="geometry" />
        </mxCell>
        <mxCell id="kLFAu0C1lm46THWvdxVZ-96" value="1 fichier .json&amp;nbsp;&lt;div&gt;avec toutes les offres&lt;/div&gt;" style="text;html=1;align=center;verticalAlign=middle;whiteSpace=wrap;rounded=0;fontSize=10;strokeColor=default;sketch=1;curveFitting=1;jiggle=2;" parent="dW5WFOGfwR0lU1UXLjn_-1" vertex="1">
          <mxGeometry x="-2806" y="1558" width="111" height="34" as="geometry" />
        </mxCell>
        <mxCell id="kLFAu0C1lm46THWvdxVZ-97" value="T1*" style="text;html=1;align=center;verticalAlign=middle;whiteSpace=wrap;rounded=1;fontSize=16;fillColor=#d5e8d4;strokeColor=#00CC00;sketch=1;curveFitting=1;jiggle=2;shadow=1;" parent="dW5WFOGfwR0lU1UXLjn_-1" vertex="1">
          <mxGeometry x="-2732" y="1498" width="40" height="30" as="geometry" />
        </mxCell>
        <mxCell id="kLFAu0C1lm46THWvdxVZ-98" value="base de données avec 3050 offres" style="text;html=1;align=center;verticalAlign=middle;whiteSpace=wrap;rounded=0;fontSize=10;strokeColor=default;sketch=1;curveFitting=1;jiggle=2;" parent="dW5WFOGfwR0lU1UXLjn_-1" vertex="1">
          <mxGeometry x="-2796" y="1668" width="91" height="34" as="geometry" />
        </mxCell>
        <mxCell id="kLFAu0C1lm46THWvdxVZ-99" value="T2*" style="text;html=1;align=center;verticalAlign=middle;whiteSpace=wrap;rounded=1;fontSize=16;fillColor=#ffe6cc;strokeColor=#d79b00;glass=0;sketch=1;curveFitting=1;jiggle=2;shadow=1;" parent="dW5WFOGfwR0lU1UXLjn_-1" vertex="1">
          <mxGeometry x="-2689" y="1670" width="40" height="30" as="geometry" />
        </mxCell>
        <mxCell id="kLFAu0C1lm46THWvdxVZ-100" value="&lt;div&gt;&lt;font style=&quot;font-size: 14px;&quot;&gt;&lt;b&gt;&lt;u&gt;Troisième extraction :&lt;/u&gt;&lt;/b&gt;&lt;/font&gt;&lt;/div&gt;" style="text;html=1;align=left;verticalAlign=top;whiteSpace=wrap;rounded=0;fontSize=10;" parent="dW5WFOGfwR0lU1UXLjn_-1" vertex="1">
          <mxGeometry x="-2826" y="1333" width="158" height="27" as="geometry" />
        </mxCell>
        <mxCell id="kLFAu0C1lm46THWvdxVZ-121" value="" style="rounded=1;whiteSpace=wrap;html=1;fillColor=none;shadow=1;dashed=1;strokeColor=#FF33FF;strokeWidth=1;" parent="dW5WFOGfwR0lU1UXLjn_-1" vertex="1">
          <mxGeometry x="-2684" y="1528" width="152" height="113" as="geometry" />
        </mxCell>
        <mxCell id="kLFAu0C1lm46THWvdxVZ-101" value="json_3" style="shape=table;startSize=20;container=0;collapsible=0;childLayout=tableLayout;fixedRows=0;rowLines=1;fontStyle=1;align=center;resizeLast=0;html=1;sketch=1;curveFitting=1;jiggle=2;rounded=0;shadow=1;columnLines=1;swimlaneHead=1;swimlaneBody=1;horizontal=1;top=0;bottom=0;left=0;right=0;connectable=1;allowArrows=0;dropTarget=0;expand=0;editable=1;movable=1;resizable=1;rotatable=1;deletable=1;locked=0;fillColor=#e1d5e7;strokeColor=#9673a6;fontSize=12;" parent="dW5WFOGfwR0lU1UXLjn_-1" vertex="1">
          <mxGeometry x="-2674" y="1538" width="132" height="91.04" as="geometry" />
        </mxCell>
        <mxCell id="kLFAu0C1lm46THWvdxVZ-102" value="" style="shape=tableRow;horizontal=0;startSize=0;swimlaneHead=0;swimlaneBody=0;fillColor=none;collapsible=0;dropTarget=0;points=[[0,0.5],[1,0.5]];portConstraint=eastwest;top=0;left=0;right=0;bottom=0;labelBackgroundColor=none;labelBorderColor=none;" parent="kLFAu0C1lm46THWvdxVZ-101" vertex="1">
          <mxGeometry y="20" width="132" height="23" as="geometry" />
        </mxCell>
        <mxCell id="kLFAu0C1lm46THWvdxVZ-103" value="&lt;strike&gt;offres 1-1000&lt;/strike&gt;" style="shape=partialRectangle;connectable=0;fillColor=none;top=0;left=0;bottom=0;right=0;editable=1;overflow=hidden;whiteSpace=wrap;html=1;recursiveResize=1;expand=1;part=0;fixedWidth=0;comic=0;fontSize=8;textShadow=0;labelBackgroundColor=none;" parent="kLFAu0C1lm46THWvdxVZ-102" vertex="1">
          <mxGeometry width="80" height="23" as="geometry">
            <mxRectangle width="80" height="23" as="alternateBounds" />
          </mxGeometry>
        </mxCell>
        <mxCell id="kLFAu0C1lm46THWvdxVZ-104" value="&lt;strike&gt;ne sont plus disponibles&lt;/strike&gt;" style="shape=partialRectangle;connectable=0;fillColor=none;top=0;left=0;bottom=0;right=0;align=center;spacingLeft=6;overflow=hidden;whiteSpace=wrap;html=1;fontSize=8;" parent="kLFAu0C1lm46THWvdxVZ-102" vertex="1">
          <mxGeometry x="80" width="52" height="23" as="geometry">
            <mxRectangle width="52" height="23" as="alternateBounds" />
          </mxGeometry>
        </mxCell>
        <mxCell id="kLFAu0C1lm46THWvdxVZ-105" value="" style="shape=tableRow;horizontal=0;startSize=0;swimlaneHead=0;swimlaneBody=0;fillColor=none;collapsible=0;dropTarget=0;points=[[0,0.5],[1,0.5]];portConstraint=eastwest;top=0;left=0;right=0;bottom=0;" parent="kLFAu0C1lm46THWvdxVZ-101" vertex="1">
          <mxGeometry y="43" width="132" height="24" as="geometry" />
        </mxCell>
        <mxCell id="kLFAu0C1lm46THWvdxVZ-106" value="&lt;span style=&quot;font-size: 8px;&quot;&gt;offres 1001-3000&lt;/span&gt;" style="shape=partialRectangle;connectable=0;fillColor=none;top=0;left=0;bottom=0;right=0;editable=1;overflow=hidden;whiteSpace=wrap;html=1;" parent="kLFAu0C1lm46THWvdxVZ-105" vertex="1">
          <mxGeometry width="80" height="24" as="geometry">
            <mxRectangle width="80" height="24" as="alternateBounds" />
          </mxGeometry>
        </mxCell>
        <mxCell id="kLFAu0C1lm46THWvdxVZ-107" value="toujours disponibles" style="shape=partialRectangle;connectable=0;fillColor=none;top=0;left=0;bottom=0;right=0;align=center;spacingLeft=6;overflow=hidden;whiteSpace=wrap;html=1;fontSize=8;" parent="kLFAu0C1lm46THWvdxVZ-105" vertex="1">
          <mxGeometry x="80" width="52" height="24" as="geometry">
            <mxRectangle width="52" height="24" as="alternateBounds" />
          </mxGeometry>
        </mxCell>
        <mxCell id="kLFAu0C1lm46THWvdxVZ-108" value="" style="shape=tableRow;horizontal=0;startSize=0;swimlaneHead=0;swimlaneBody=0;fillColor=none;collapsible=0;dropTarget=0;points=[[0,0.5],[1,0.5]];portConstraint=eastwest;top=0;left=0;right=0;bottom=0;" parent="kLFAu0C1lm46THWvdxVZ-101" vertex="1">
          <mxGeometry y="67" width="132" height="24" as="geometry" />
        </mxCell>
        <mxCell id="kLFAu0C1lm46THWvdxVZ-109" value="&lt;span style=&quot;font-size: 8px;&quot;&gt;offres 3001-3050&lt;/span&gt;" style="shape=partialRectangle;connectable=0;fillColor=none;top=0;left=0;bottom=0;right=0;editable=1;overflow=hidden;whiteSpace=wrap;html=1;" parent="kLFAu0C1lm46THWvdxVZ-108" vertex="1">
          <mxGeometry width="80" height="24" as="geometry">
            <mxRectangle width="80" height="24" as="alternateBounds" />
          </mxGeometry>
        </mxCell>
        <mxCell id="kLFAu0C1lm46THWvdxVZ-110" value="nouveau" style="shape=partialRectangle;connectable=0;fillColor=none;top=0;left=0;bottom=0;right=0;align=center;spacingLeft=6;overflow=hidden;whiteSpace=wrap;html=1;fontSize=8;" parent="kLFAu0C1lm46THWvdxVZ-108" vertex="1">
          <mxGeometry x="80" width="52" height="24" as="geometry">
            <mxRectangle width="52" height="24" as="alternateBounds" />
          </mxGeometry>
        </mxCell>
        <mxCell id="kLFAu0C1lm46THWvdxVZ-111" value="json_3" style="shape=table;startSize=20;container=0;collapsible=0;childLayout=tableLayout;fixedRows=0;rowLines=1;fontStyle=1;align=center;resizeLast=0;html=1;sketch=1;curveFitting=1;jiggle=2;rounded=0;shadow=1;columnLines=1;swimlaneHead=1;swimlaneBody=1;horizontal=1;top=0;bottom=0;left=0;right=0;connectable=1;allowArrows=0;dropTarget=0;expand=0;editable=1;movable=1;resizable=1;rotatable=1;deletable=1;locked=0;fillColor=#e1d5e7;strokeColor=#FF33FF;fontSize=12;" parent="dW5WFOGfwR0lU1UXLjn_-1" vertex="1">
          <mxGeometry x="-2438" y="1538" width="145" height="91.04" as="geometry" />
        </mxCell>
        <mxCell id="kLFAu0C1lm46THWvdxVZ-112" value="" style="shape=tableRow;horizontal=0;startSize=0;swimlaneHead=0;swimlaneBody=0;fillColor=none;collapsible=0;dropTarget=0;points=[[0,0.5],[1,0.5]];portConstraint=eastwest;top=0;left=0;right=0;bottom=0;labelBackgroundColor=none;labelBorderColor=none;" parent="kLFAu0C1lm46THWvdxVZ-111" vertex="1">
          <mxGeometry y="20" width="145" height="23" as="geometry" />
        </mxCell>
        <mxCell id="kLFAu0C1lm46THWvdxVZ-113" value="offres 1-1000" style="shape=partialRectangle;connectable=0;fillColor=none;top=0;left=0;bottom=0;right=0;editable=1;overflow=hidden;whiteSpace=wrap;html=1;recursiveResize=1;expand=1;part=0;fixedWidth=0;comic=0;fontSize=8;textShadow=0;labelBackgroundColor=none;" parent="kLFAu0C1lm46THWvdxVZ-112" vertex="1">
          <mxGeometry width="80" height="23" as="geometry">
            <mxRectangle width="80" height="23" as="alternateBounds" />
          </mxGeometry>
        </mxCell>
        <mxCell id="kLFAu0C1lm46THWvdxVZ-114" value="de &quot;json_2&quot;" style="shape=partialRectangle;connectable=0;fillColor=none;top=0;left=0;bottom=0;right=0;align=center;spacingLeft=6;overflow=hidden;whiteSpace=wrap;html=1;fontSize=8;" parent="kLFAu0C1lm46THWvdxVZ-112" vertex="1">
          <mxGeometry x="80" width="65" height="23" as="geometry">
            <mxRectangle width="65" height="23" as="alternateBounds" />
          </mxGeometry>
        </mxCell>
        <mxCell id="kLFAu0C1lm46THWvdxVZ-115" value="" style="shape=tableRow;horizontal=0;startSize=0;swimlaneHead=0;swimlaneBody=0;fillColor=none;collapsible=0;dropTarget=0;points=[[0,0.5],[1,0.5]];portConstraint=eastwest;top=0;left=0;right=0;bottom=0;" parent="kLFAu0C1lm46THWvdxVZ-111" vertex="1">
          <mxGeometry y="43" width="145" height="24" as="geometry" />
        </mxCell>
        <mxCell id="kLFAu0C1lm46THWvdxVZ-116" value="&lt;span style=&quot;font-size: 8px;&quot;&gt;offres 1001-3000&lt;/span&gt;" style="shape=partialRectangle;connectable=0;fillColor=none;top=0;left=0;bottom=0;right=0;editable=1;overflow=hidden;whiteSpace=wrap;html=1;" parent="kLFAu0C1lm46THWvdxVZ-115" vertex="1">
          <mxGeometry width="80" height="24" as="geometry">
            <mxRectangle width="80" height="24" as="alternateBounds" />
          </mxGeometry>
        </mxCell>
        <mxCell id="kLFAu0C1lm46THWvdxVZ-117" value="de &quot;json_3&quot; car attributs à jour" style="shape=partialRectangle;connectable=0;fillColor=none;top=0;left=0;bottom=0;right=0;align=center;spacingLeft=6;overflow=hidden;whiteSpace=wrap;html=1;fontSize=8;" parent="kLFAu0C1lm46THWvdxVZ-115" vertex="1">
          <mxGeometry x="80" width="65" height="24" as="geometry">
            <mxRectangle width="65" height="24" as="alternateBounds" />
          </mxGeometry>
        </mxCell>
        <mxCell id="kLFAu0C1lm46THWvdxVZ-118" value="" style="shape=tableRow;horizontal=0;startSize=0;swimlaneHead=0;swimlaneBody=0;fillColor=none;collapsible=0;dropTarget=0;points=[[0,0.5],[1,0.5]];portConstraint=eastwest;top=0;left=0;right=0;bottom=0;" parent="kLFAu0C1lm46THWvdxVZ-111" vertex="1">
          <mxGeometry y="67" width="145" height="24" as="geometry" />
        </mxCell>
        <mxCell id="kLFAu0C1lm46THWvdxVZ-119" value="&lt;span style=&quot;font-size: 8px;&quot;&gt;offres 3001-3050&lt;/span&gt;" style="shape=partialRectangle;connectable=0;fillColor=none;top=0;left=0;bottom=0;right=0;editable=1;overflow=hidden;whiteSpace=wrap;html=1;" parent="kLFAu0C1lm46THWvdxVZ-118" vertex="1">
          <mxGeometry width="80" height="24" as="geometry">
            <mxRectangle width="80" height="24" as="alternateBounds" />
          </mxGeometry>
        </mxCell>
        <mxCell id="kLFAu0C1lm46THWvdxVZ-120" value="de &quot;json_3&quot;" style="shape=partialRectangle;connectable=0;fillColor=none;top=0;left=0;bottom=0;right=0;align=center;spacingLeft=6;overflow=hidden;whiteSpace=wrap;html=1;fontSize=8;" parent="kLFAu0C1lm46THWvdxVZ-118" vertex="1">
          <mxGeometry x="80" width="65" height="24" as="geometry">
            <mxRectangle width="65" height="24" as="alternateBounds" />
          </mxGeometry>
        </mxCell>
        <mxCell id="kLFAu0C1lm46THWvdxVZ-122" value="&lt;font style=&quot;color: rgb(204, 0, 204);&quot;&gt;Il faut faire un &quot;RIGHT JOIN&quot; entre &quot;json_2&quot; et &quot;json_3&quot;.&lt;/font&gt;" style="text;html=1;align=center;verticalAlign=middle;whiteSpace=wrap;rounded=0;fontSize=10;strokeColor=none;sketch=1;curveFitting=1;jiggle=2;fillColor=none;" parent="dW5WFOGfwR0lU1UXLjn_-1" vertex="1">
          <mxGeometry x="-2432" y="1500" width="139" height="34" as="geometry" />
        </mxCell>
        <mxCell id="kLFAu0C1lm46THWvdxVZ-123" value="&lt;font style=&quot;color: rgb(204, 0, 204);&quot;&gt;on veut&lt;/font&gt;" style="text;html=1;align=center;verticalAlign=middle;whiteSpace=wrap;rounded=0;fontSize=10;strokeColor=none;sketch=1;curveFitting=1;jiggle=2;fillColor=none;" parent="dW5WFOGfwR0lU1UXLjn_-1" vertex="1">
          <mxGeometry x="-2515" y="1558" width="51" height="34" as="geometry" />
        </mxCell>
        <mxCell id="kLFAu0C1lm46THWvdxVZ-125" value="&lt;div&gt;&lt;font style=&quot;font-size: 14px;&quot;&gt;&lt;b&gt;&lt;u&gt;Etc...&lt;/u&gt;&lt;/b&gt;&lt;/font&gt;&lt;/div&gt;" style="text;html=1;align=left;verticalAlign=top;whiteSpace=wrap;rounded=0;fontSize=10;" parent="dW5WFOGfwR0lU1UXLjn_-1" vertex="1">
          <mxGeometry x="-2257" y="1333" width="46" height="30" as="geometry" />
        </mxCell>
        <mxCell id="kLFAu0C1lm46THWvdxVZ-127" style="edgeStyle=orthogonalEdgeStyle;rounded=1;orthogonalLoop=1;jettySize=auto;html=1;entryX=0.586;entryY=1.074;entryDx=0;entryDy=0;entryPerimeter=0;curved=0;strokeColor=#FF33FF;" parent="dW5WFOGfwR0lU1UXLjn_-1" target="kLFAu0C1lm46THWvdxVZ-118" edge="1">
          <mxGeometry relative="1" as="geometry">
            <mxPoint x="-2933" y="1632" as="sourcePoint" />
            <mxPoint x="-2336" y="1642" as="targetPoint" />
            <Array as="points">
              <mxPoint x="-2933" y="1632" />
              <mxPoint x="-2933" y="1719" />
              <mxPoint x="-2353" y="1719" />
            </Array>
          </mxGeometry>
        </mxCell>
        <mxCell id="PpwRb3DP2myml8ZpC41S-6" value="&lt;div style=&quot;font-size: 10px;&quot;&gt;&lt;font style=&quot;color: rgb(0, 0, 0);&quot;&gt;1 fichier .json&lt;/font&gt;&lt;/div&gt;" style="rhombus;whiteSpace=wrap;html=1;fillColor=#FFE599;gradientColor=none;rounded=1;sketch=1;curveFitting=1;jiggle=2;" vertex="1" parent="dW5WFOGfwR0lU1UXLjn_-1">
          <mxGeometry x="-2808.5" y="982.5" width="126" height="50" as="geometry" />
        </mxCell>
        <mxCell id="PpwRb3DP2myml8ZpC41S-14" value="" style="edgeStyle=orthogonalEdgeStyle;rounded=0;orthogonalLoop=1;jettySize=auto;html=1;sketch=1;curveFitting=1;jiggle=2;entryX=0.5;entryY=0;entryDx=0;entryDy=0;" edge="1" parent="dW5WFOGfwR0lU1UXLjn_-1" source="PpwRb3DP2myml8ZpC41S-6" target="PpwRb3DP2myml8ZpC41S-44">
          <mxGeometry relative="1" as="geometry">
            <mxPoint x="-2969" y="1532" as="sourcePoint" />
            <mxPoint x="-2746" y="1084" as="targetPoint" />
          </mxGeometry>
        </mxCell>
        <mxCell id="PpwRb3DP2myml8ZpC41S-19" value="&lt;div&gt;&lt;span style=&quot;background-color: transparent; color: light-dark(rgb(0, 0, 0), rgb(255, 255, 255));&quot;&gt;Par exemple,&amp;nbsp;2000 offres récupérées par API :&lt;/span&gt;&lt;/div&gt;" style="text;html=1;align=left;verticalAlign=top;whiteSpace=wrap;rounded=0;fontSize=10;" vertex="1" parent="dW5WFOGfwR0lU1UXLjn_-1">
          <mxGeometry x="-3740" y="1363" width="249" height="48" as="geometry" />
        </mxCell>
        <mxCell id="PpwRb3DP2myml8ZpC41S-20" value="&lt;div&gt;&lt;span style=&quot;background-color: transparent; color: light-dark(rgb(0, 0, 0), rgb(255, 255, 255));&quot;&gt;Par exemple, 2500 offres récupérées par API :&lt;/span&gt;&lt;/div&gt;&lt;div&gt;&amp;nbsp; &lt;strike&gt;(- les offres 1-500 précédemment disponibles ne le sont plus)&lt;/strike&gt;&lt;/div&gt;&lt;div&gt;&amp;nbsp; &amp;nbsp;- les offres 501-2000 précédemment disponibles le sont toujours&lt;/div&gt;&lt;div&gt;&amp;nbsp; &amp;nbsp;- les offres 2001-3000 sont nouvelles &lt;font style=&quot;color: rgb(0, 0, 255);&quot;&gt;&lt;b&gt;--&amp;gt; 1000 nouvelles offres&lt;/b&gt;&lt;/font&gt;&lt;/div&gt;" style="text;html=1;align=left;verticalAlign=top;whiteSpace=wrap;rounded=0;fontSize=10;" vertex="1" parent="dW5WFOGfwR0lU1UXLjn_-1">
          <mxGeometry x="-3401" y="1367" width="327" height="88" as="geometry" />
        </mxCell>
        <mxCell id="PpwRb3DP2myml8ZpC41S-21" value="&lt;div&gt;&lt;span style=&quot;background-color: transparent; color: light-dark(rgb(0, 0, 0), rgb(255, 255, 255));&quot;&gt;Par exemple, 2050 offres récupérées par API :&lt;/span&gt;&lt;/div&gt;&lt;div&gt;&amp;nbsp; &lt;strike&gt;(- les offres 1-1000 précédemment disponibles ne le sont plus)&lt;/strike&gt;&lt;/div&gt;&lt;div&gt;&amp;nbsp; &amp;nbsp;- les offres 1001-3000 précédemment disponibles le sont toujours&lt;/div&gt;&lt;div&gt;&amp;nbsp; &amp;nbsp;- les offres 3001-3050 sont nouvelles &lt;b&gt;&lt;font style=&quot;color: rgb(0, 0, 255);&quot;&gt;---&amp;gt; 50 nouvelles offres&lt;/font&gt;&lt;/b&gt;&lt;/div&gt;" style="text;html=1;align=left;verticalAlign=top;whiteSpace=wrap;rounded=0;fontSize=10;" vertex="1" parent="dW5WFOGfwR0lU1UXLjn_-1">
          <mxGeometry x="-2819" y="1365" width="327" height="88" as="geometry" />
        </mxCell>
        <mxCell id="PpwRb3DP2myml8ZpC41S-32" style="edgeStyle=orthogonalEdgeStyle;rounded=0;orthogonalLoop=1;jettySize=auto;html=1;entryX=0.5;entryY=0;entryDx=0;entryDy=0;sketch=1;curveFitting=1;jiggle=2;" edge="1" parent="dW5WFOGfwR0lU1UXLjn_-1" source="PpwRb3DP2myml8ZpC41S-24" target="kLFAu0C1lm46THWvdxVZ-100">
          <mxGeometry relative="1" as="geometry" />
        </mxCell>
        <mxCell id="PpwRb3DP2myml8ZpC41S-24" value="Le nom du json contient &quot;&lt;font style=&quot;color: rgb(0, 0, 255);&quot;&gt;extraction__occurence_&lt;/font&gt;&lt;font style=&quot;color: rgb(204, 0, 0); font-size: 16px;&quot;&gt;&lt;b style=&quot;&quot;&gt;2&lt;/b&gt;&lt;/font&gt;&lt;font style=&quot;color: rgb(0, 0, 255);&quot;&gt;.json&lt;/font&gt;&quot;" style="rounded=1;whiteSpace=wrap;html=1;fillColor=#ffe6cc;strokeColor=#000000;sketch=1;curveFitting=1;jiggle=2;" vertex="1" parent="dW5WFOGfwR0lU1UXLjn_-1">
          <mxGeometry x="-2834" y="1246" width="176" height="50" as="geometry" />
        </mxCell>
        <mxCell id="PpwRb3DP2myml8ZpC41S-31" style="edgeStyle=orthogonalEdgeStyle;rounded=0;orthogonalLoop=1;jettySize=auto;html=1;sketch=1;curveFitting=1;jiggle=2;" edge="1" parent="dW5WFOGfwR0lU1UXLjn_-1" source="PpwRb3DP2myml8ZpC41S-25" target="kLFAu0C1lm46THWvdxVZ-41">
          <mxGeometry relative="1" as="geometry" />
        </mxCell>
        <mxCell id="PpwRb3DP2myml8ZpC41S-25" value="Le nom du json contient &quot;&lt;font style=&quot;color: rgb(0, 0, 255);&quot;&gt;extraction__occurence_&lt;/font&gt;&lt;font style=&quot;color: rgb(204, 0, 0); font-size: 16px;&quot;&gt;&lt;b style=&quot;&quot;&gt;1&lt;/b&gt;&lt;/font&gt;&lt;font style=&quot;color: rgb(0, 0, 255);&quot;&gt;.json&lt;/font&gt;&quot;" style="rounded=1;whiteSpace=wrap;html=1;fillColor=#ffe6cc;strokeColor=#000000;sketch=1;curveFitting=1;jiggle=2;" vertex="1" parent="dW5WFOGfwR0lU1UXLjn_-1">
          <mxGeometry x="-3420" y="1246" width="176" height="50" as="geometry" />
        </mxCell>
        <mxCell id="PpwRb3DP2myml8ZpC41S-35" style="edgeStyle=orthogonalEdgeStyle;rounded=0;orthogonalLoop=1;jettySize=auto;html=1;entryX=0.5;entryY=0;entryDx=0;entryDy=0;sketch=1;curveFitting=1;jiggle=2;" edge="1" parent="dW5WFOGfwR0lU1UXLjn_-1" source="PpwRb3DP2myml8ZpC41S-34" target="PpwRb3DP2myml8ZpC41S-36">
          <mxGeometry relative="1" as="geometry" />
        </mxCell>
        <mxCell id="PpwRb3DP2myml8ZpC41S-34" value="Lancement du process&amp;nbsp;" style="rounded=1;whiteSpace=wrap;html=1;fillColor=#ffe6cc;strokeColor=#000000;sketch=1;curveFitting=1;jiggle=2;" vertex="1" parent="dW5WFOGfwR0lU1UXLjn_-1">
          <mxGeometry x="-2833.5" y="762" width="176" height="49" as="geometry" />
        </mxCell>
        <mxCell id="PpwRb3DP2myml8ZpC41S-39" style="edgeStyle=orthogonalEdgeStyle;rounded=0;orthogonalLoop=1;jettySize=auto;html=1;entryX=0.5;entryY=0;entryDx=0;entryDy=0;sketch=1;curveFitting=1;jiggle=2;" edge="1" parent="dW5WFOGfwR0lU1UXLjn_-1" source="PpwRb3DP2myml8ZpC41S-36" target="PpwRb3DP2myml8ZpC41S-6">
          <mxGeometry relative="1" as="geometry" />
        </mxCell>
        <mxCell id="PpwRb3DP2myml8ZpC41S-40" style="edgeStyle=orthogonalEdgeStyle;rounded=0;orthogonalLoop=1;jettySize=auto;html=1;exitX=0.25;exitY=1;exitDx=0;exitDy=0;entryX=0.5;entryY=0;entryDx=0;entryDy=0;sketch=1;curveFitting=1;jiggle=2;" edge="1" parent="dW5WFOGfwR0lU1UXLjn_-1" source="PpwRb3DP2myml8ZpC41S-36" target="PpwRb3DP2myml8ZpC41S-37">
          <mxGeometry relative="1" as="geometry" />
        </mxCell>
        <mxCell id="PpwRb3DP2myml8ZpC41S-41" style="edgeStyle=orthogonalEdgeStyle;rounded=0;orthogonalLoop=1;jettySize=auto;html=1;exitX=0.75;exitY=1;exitDx=0;exitDy=0;entryX=0.5;entryY=0;entryDx=0;entryDy=0;sketch=1;curveFitting=1;jiggle=2;" edge="1" parent="dW5WFOGfwR0lU1UXLjn_-1" source="PpwRb3DP2myml8ZpC41S-36" target="PpwRb3DP2myml8ZpC41S-38">
          <mxGeometry relative="1" as="geometry" />
        </mxCell>
        <mxCell id="PpwRb3DP2myml8ZpC41S-36" value="&lt;div style=&quot;color: rgb(0, 0, 255); font-size: 10px;&quot;&gt;&lt;span style=&quot;background-color: transparent;&quot;&gt;&lt;font style=&quot;color: rgb(0, 0, 0);&quot;&gt;Vérification du nombre de fichiers json dans le dossier&lt;/font&gt;&amp;nbsp;&lt;/span&gt;&lt;span style=&quot;color: light-dark(rgb(0, 0, 255), rgb(205, 205, 255)); background-color: transparent;&quot;&gt;&quot;&lt;/span&gt;&lt;span style=&quot;color: light-dark(rgb(0, 0, 255), rgb(205, 205, 255)); background-color: transparent;&quot;&gt;api_extract__transform/outputs/offres/1--generated_json_file&lt;/span&gt;&lt;span style=&quot;color: light-dark(rgb(0, 0, 255), rgb(205, 205, 255)); background-color: transparent;&quot;&gt;&quot;&lt;/span&gt;&lt;/div&gt;" style="rounded=1;whiteSpace=wrap;html=1;fillColor=#ffe6cc;strokeColor=#000000;sketch=1;curveFitting=1;jiggle=2;" vertex="1" parent="dW5WFOGfwR0lU1UXLjn_-1">
          <mxGeometry x="-2867.5" y="857" width="243.5" height="62" as="geometry" />
        </mxCell>
        <mxCell id="PpwRb3DP2myml8ZpC41S-48" style="edgeStyle=orthogonalEdgeStyle;rounded=0;orthogonalLoop=1;jettySize=auto;html=1;exitX=0;exitY=0.5;exitDx=0;exitDy=0;sketch=1;curveFitting=1;jiggle=2;" edge="1" parent="dW5WFOGfwR0lU1UXLjn_-1" source="PpwRb3DP2myml8ZpC41S-37" target="kLFAu0C1lm46THWvdxVZ-42">
          <mxGeometry relative="1" as="geometry">
            <Array as="points">
              <mxPoint x="-3672" y="1008" />
            </Array>
          </mxGeometry>
        </mxCell>
        <mxCell id="PpwRb3DP2myml8ZpC41S-37" value="&lt;div style=&quot;font-size: 10px;&quot;&gt;&lt;font style=&quot;color: rgb(0, 0, 0);&quot;&gt;0 fichier .json&lt;/font&gt;&lt;/div&gt;" style="rhombus;whiteSpace=wrap;html=1;fillColor=#FFE599;gradientColor=none;rounded=1;sketch=1;curveFitting=1;jiggle=2;" vertex="1" parent="dW5WFOGfwR0lU1UXLjn_-1">
          <mxGeometry x="-3093" y="982.5" width="126" height="50" as="geometry" />
        </mxCell>
        <mxCell id="PpwRb3DP2myml8ZpC41S-43" style="edgeStyle=orthogonalEdgeStyle;rounded=0;orthogonalLoop=1;jettySize=auto;html=1;exitX=1;exitY=0.5;exitDx=0;exitDy=0;entryX=0;entryY=0.5;entryDx=0;entryDy=0;sketch=1;curveFitting=1;jiggle=2;" edge="1" parent="dW5WFOGfwR0lU1UXLjn_-1" source="PpwRb3DP2myml8ZpC41S-38" target="PpwRb3DP2myml8ZpC41S-42">
          <mxGeometry relative="1" as="geometry" />
        </mxCell>
        <mxCell id="PpwRb3DP2myml8ZpC41S-38" value="&lt;div style=&quot;font-size: 10px;&quot;&gt;&lt;font style=&quot;color: rgb(0, 0, 0);&quot;&gt;plusieurs&lt;/font&gt;&lt;/div&gt;&lt;div style=&quot;font-size: 10px;&quot;&gt;&lt;font style=&quot;color: rgb(0, 0, 0);&quot;&gt;&amp;nbsp;fichiers .json&lt;/font&gt;&lt;/div&gt;" style="rhombus;whiteSpace=wrap;html=1;fillColor=#FFE599;gradientColor=none;rounded=1;sketch=1;curveFitting=1;jiggle=2;" vertex="1" parent="dW5WFOGfwR0lU1UXLjn_-1">
          <mxGeometry x="-2515.5" y="982.5" width="126" height="50" as="geometry" />
        </mxCell>
        <mxCell id="PpwRb3DP2myml8ZpC41S-42" value="Fin du process" style="rounded=1;whiteSpace=wrap;html=1;fillColor=#ffe6cc;strokeColor=#000000;sketch=1;curveFitting=1;jiggle=2;" vertex="1" parent="dW5WFOGfwR0lU1UXLjn_-1">
          <mxGeometry x="-2303" y="984" width="176" height="49" as="geometry" />
        </mxCell>
        <mxCell id="PpwRb3DP2myml8ZpC41S-45" style="edgeStyle=orthogonalEdgeStyle;rounded=0;orthogonalLoop=1;jettySize=auto;html=1;exitX=0.25;exitY=1;exitDx=0;exitDy=0;entryX=0.522;entryY=-0.011;entryDx=0;entryDy=0;sketch=1;curveFitting=1;jiggle=2;entryPerimeter=0;" edge="1" parent="dW5WFOGfwR0lU1UXLjn_-1" source="PpwRb3DP2myml8ZpC41S-44" target="PpwRb3DP2myml8ZpC41S-25">
          <mxGeometry relative="1" as="geometry">
            <mxPoint x="-3330" y="1234" as="targetPoint" />
          </mxGeometry>
        </mxCell>
        <mxCell id="PpwRb3DP2myml8ZpC41S-46" style="edgeStyle=orthogonalEdgeStyle;rounded=0;orthogonalLoop=1;jettySize=auto;html=1;exitX=0.5;exitY=1;exitDx=0;exitDy=0;entryX=0.5;entryY=0;entryDx=0;entryDy=0;sketch=1;curveFitting=1;jiggle=2;" edge="1" parent="dW5WFOGfwR0lU1UXLjn_-1" source="PpwRb3DP2myml8ZpC41S-44" target="PpwRb3DP2myml8ZpC41S-24">
          <mxGeometry relative="1" as="geometry">
            <mxPoint x="-2744.0000000000005" y="1234" as="targetPoint" />
          </mxGeometry>
        </mxCell>
        <mxCell id="PpwRb3DP2myml8ZpC41S-47" style="edgeStyle=orthogonalEdgeStyle;rounded=0;orthogonalLoop=1;jettySize=auto;html=1;exitX=0.75;exitY=1;exitDx=0;exitDy=0;entryX=0.5;entryY=0;entryDx=0;entryDy=0;sketch=1;curveFitting=1;jiggle=2;" edge="1" parent="dW5WFOGfwR0lU1UXLjn_-1" source="PpwRb3DP2myml8ZpC41S-44" target="kLFAu0C1lm46THWvdxVZ-125">
          <mxGeometry relative="1" as="geometry">
            <Array as="points">
              <mxPoint x="-2699" y="1151" />
              <mxPoint x="-2699" y="1193" />
              <mxPoint x="-2234" y="1193" />
            </Array>
          </mxGeometry>
        </mxCell>
        <mxCell id="PpwRb3DP2myml8ZpC41S-44" value="&lt;div style=&quot;color: rgb(0, 0, 255); font-size: 10px;&quot;&gt;&lt;div style=&quot;color: rgb(0, 0, 0);&quot;&gt;&lt;font style=&quot;color: rgb(0, 0, 0);&quot;&gt;Vérification du numéro de&amp;nbsp;&lt;/font&gt;&lt;span style=&quot;color: light-dark(rgb(0, 0, 0), rgb(237, 237, 237)); background-color: transparent;&quot;&gt;l&#39;occurence&amp;nbsp;&lt;/span&gt;&lt;/div&gt;&lt;div style=&quot;color: rgb(0, 0, 0);&quot;&gt;&lt;span style=&quot;color: light-dark(rgb(0, 0, 0), rgb(237, 237, 237)); background-color: transparent;&quot;&gt;avec le&amp;nbsp;&lt;/span&gt;&lt;span style=&quot;color: light-dark(rgb(0, 0, 0), rgb(237, 237, 237)); background-color: transparent;&quot;&gt;nom du fichier json&lt;/span&gt;&lt;/div&gt;&lt;/div&gt;" style="rounded=1;whiteSpace=wrap;html=1;fillColor=#ffe6cc;strokeColor=#000000;sketch=1;curveFitting=1;jiggle=2;" vertex="1" parent="dW5WFOGfwR0lU1UXLjn_-1">
          <mxGeometry x="-2840" y="1089" width="188" height="62" as="geometry" />
        </mxCell>
      </root>
    </mxGraphModel>
  </diagram>
</mxfile>
